<?xml version="1.0" encoding="UTF-8"?>
<svg width="77px" height="77px" viewBox="0 0 77 77" version="1.1" xmlns="http://www.w3.org/2000/svg" xmlns:xlink="http://www.w3.org/1999/xlink">
    <!-- Generator: Sketch 51.2 (57519) - http://www.bohemiancoding.com/sketch -->
    <title>cancel</title>
    <desc>Created with Sketch.</desc>
    <defs></defs>
    <g id="Page-1" stroke="none" stroke-width="1" fill="none" fill-rule="evenodd">
        <g id="cancel" fill="#FF3B30" fill-rule="nonzero">
            <path d="M38.5,0 C17.15,0 0,17.15 0,38.5 C0,59.85 17.15,77 38.5,77 C59.85,77 77,59.85 77,38.5 C77,17.15 59.85,0 38.5,0 Z M44.1,39.2 L57.225,52.325 C57.575,52.675 57.75,53.2 57.75,53.55 C57.75,53.9 57.575,54.425 57.225,54.775 L54.775,57.225 C54.425,57.575 53.9,57.75 53.55,57.75 C53.025,57.75 52.675,57.575 52.325,57.225 L39.2,44.1 C38.85,43.75 38.325,43.75 37.975,44.1 L24.85,57.225 C24.5,57.575 23.975,57.75 23.625,57.75 C23.1,57.75 22.75,57.575 22.4,57.225 L19.95,54.775 C19.6,54.425 19.425,53.9 19.425,53.55 C19.425,53.2 19.6,52.675 19.95,52.325 L33.075,39.2 C33.425,38.85 33.425,38.325 33.075,37.975 L19.95,24.85 C19.6,24.5 19.425,23.975 19.425,23.625 C19.425,23.275 19.6,22.75 19.95,22.4 L22.4,19.95 C22.75,19.6 23.275,19.425 23.625,19.425 C23.975,19.425 24.5,19.6 24.85,19.95 L37.975,33.075 C38.325,33.425 38.85,33.425 39.2,33.075 L52.325,19.95 C52.675,19.6 53.2,19.425 53.55,19.425 C54.075,19.425 54.425,19.6 54.775,19.95 L57.225,22.4 C57.575,22.75 57.75,23.275 57.75,23.625 C57.75,23.975 57.575,24.5 57.225,24.85 L44.1,37.975 C43.75,38.15 43.75,38.85 44.1,39.2 Z" id="Shape"></path>
        </g>
    </g>
</svg>