<svg xmlns="http://www.w3.org/2000/svg" viewBox="0 0 9.69 9.69"><defs><style>.cls-1{fill:#f5a623;fill-rule:evenodd;}</style></defs><title>Pending</title><g id="Layer_2" data-name="Layer 2"><g id="Layer_1-2" data-name="Layer 1"><path class="cls-1" d="M4.28,7.4,7.87,3.81A.26.26,0,0,0,8,3.59a.24.24,0,0,0-.1-.21l-.43-.45a.28.28,0,0,0-.22-.1.3.3,0,0,0-.23.1L4.06,5.86,2.7,4.49a.34.34,0,0,0-.23-.1.32.32,0,0,0-.22.1l-.43.45a.26.26,0,0,0-.1.22.24.24,0,0,0,.1.21l2,2a.24.24,0,0,0,.21.1A.26.26,0,0,0,4.28,7.4ZM9.69,4.84A4.69,4.69,0,0,1,9,7.27,4.79,4.79,0,0,1,7.27,9a4.69,4.69,0,0,1-2.43.66A4.66,4.66,0,0,1,2.42,9,4.9,4.9,0,0,1,.65,7.27a4.85,4.85,0,0,1,0-4.85A5,5,0,0,1,2.42.65a4.85,4.85,0,0,1,4.85,0A4.9,4.9,0,0,1,9,2.42,4.66,4.66,0,0,1,9.69,4.84Z"/></g></g></svg>